<svg width="47" height="45" viewBox="0 0 47 45" fill="none" xmlns="http://www.w3.org/2000/svg">
<path d="M34.6474 16.875H38.4624C39.4742 16.875 40.4446 17.2701 41.1601 17.9734C41.8755 18.6766 42.2775 19.6304 42.2775 20.625V41.25L34.6474 33.75H23.2023C22.1905 33.75 21.2201 33.3549 20.5047 32.6516C19.7892 31.9484 19.3873 30.9946 19.3873 30V28.125M27.0173 16.875C27.0173 17.8696 26.6154 18.8234 25.8999 19.5266C25.1845 20.2299 24.2141 20.625 23.2023 20.625H11.7572L4.12717 28.125V7.5C4.12717 5.4375 5.84393 3.75 7.9422 3.75H23.2023C24.2141 3.75 25.1845 4.14509 25.8999 4.84835C26.6154 5.55161 27.0173 6.50544 27.0173 7.5V16.875Z" stroke="#249261" stroke-width="3" stroke-linecap="round" stroke-linejoin="round"/>
</svg>
