<svg width="45" height="45" viewBox="0 0 45 45" fill="none" xmlns="http://www.w3.org/2000/svg">
<path d="M22.5 37.5H39.375M30.705 6.79124C31.4514 6.04482 32.4638 5.62549 33.5194 5.62549C34.575 5.62549 35.5873 6.04482 36.3337 6.79124C37.0802 7.53766 37.4995 8.55002 37.4995 9.60562C37.4995 10.6612 37.0802 11.6736 36.3337 12.42L13.815 34.9406C13.3689 35.3867 12.8175 35.713 12.2119 35.8894L6.82686 37.4606C6.66552 37.5077 6.4945 37.5105 6.33169 37.4688C6.16889 37.4271 6.02029 37.3424 5.90145 37.2235C5.78261 37.1047 5.6979 36.9561 5.65619 36.7933C5.61448 36.6305 5.6173 36.4595 5.66436 36.2981L7.23561 30.9131C7.41228 30.3081 7.73858 29.7574 8.18436 29.3119L30.705 6.79124Z" stroke="#249261" stroke-width="3" stroke-linecap="round" stroke-linejoin="round"/>
</svg>
