<svg width="45" height="45" viewBox="0 0 45 45" fill="none" xmlns="http://www.w3.org/2000/svg">
<path d="M13.125 39.375H31.875M22.5 5.625V39.375M5.625 13.125H9.375C13.125 13.125 18.75 11.25 22.5 9.375C26.25 11.25 31.875 13.125 35.625 13.125H39.375M30 30L35.625 15L41.25 30C39.6187 31.2187 37.65 31.875 35.625 31.875C33.6 31.875 31.6313 31.2187 30 30ZM3.75 30L9.375 15L15 30C13.3687 31.2187 11.4 31.875 9.375 31.875C7.35 31.875 5.38125 31.2187 3.75 30Z" stroke="#249261" stroke-width="3" stroke-linecap="round" stroke-linejoin="round"/>
</svg>
